<svg id="visual" viewBox="0 0 900 600" width="900" height="600" xmlns="http://www.w3.org/2000/svg" xmlns:xlink="http://www.w3.org/1999/xlink" version="1.1"><rect x="0" y="0" width="900" height="600" fill="#140021"></rect><path d="M0 256L129 256L129 360L257 360L257 355L386 355L386 370L514 370L514 312L643 312L643 360L771 360L771 376L900 376L900 247L900 601L900 601L771 601L771 601L643 601L643 601L514 601L514 601L386 601L386 601L257 601L257 601L129 601L129 601L0 601Z" fill="#9900ff"></path><path d="M0 410L129 410L129 346L257 346L257 375L386 375L386 445L514 445L514 453L643 453L643 360L771 360L771 436L900 436L900 381L900 601L900 601L771 601L771 601L643 601L643 601L514 601L514 601L386 601L386 601L257 601L257 601L129 601L129 601L0 601Z" fill="#7700c6"></path><path d="M0 500L129 500L129 522L257 522L257 488L386 488L386 454L514 454L514 469L643 469L643 498L771 498L771 546L900 546L900 491L900 601L900 601L771 601L771 601L643 601L643 601L514 601L514 601L386 601L386 601L257 601L257 601L129 601L129 601L0 601Z" fill="#560090"></path></svg>